<svg preserveAspectRatio="none" width="100%" height="100%" overflow="visible" style="display: block;" viewBox="0 0 2143.2 1082.12" fill="none" xmlns="http://www.w3.org/2000/svg">
<g id="Frame 8">
<g id="Vector" filter="url(#filter0_f_0_4)">
<path fill-rule="evenodd" clip-rule="evenodd" d="M911.204 432.472C1122.64 400.673 1094.24 224.24 1317.57 213.285C1477.34 205.447 1264.42 361.644 1376.27 409.658C1506.5 465.566 1821.6 400.77 1912.64 468.745C1989.13 525.85 1797.97 593.213 1680.12 636.517C1578.55 673.84 1393.96 651.644 1302.11 693.084C1220.02 730.122 1314.32 802.731 1230.83 839.229C1155.25 872.273 1018.56 873.454 911.204 863.982C806.173 854.715 709.912 825.315 650.917 788.064C595.978 753.375 666.009 697.848 599.182 666.964C525.81 633.055 365.201 656.371 292.25 622.306C225.359 591.07 180.781 533.376 242.153 500.244C317.582 459.523 513.671 497.666 594.904 458.917C670.769 422.729 512.273 326.833 625.549 317.362C757.279 306.348 784.862 451.474 911.204 432.472Z" fill="#ffffff"/>
</g>
</g>
<defs>
<filter id="filter0_f_0_4" x="0" y="0" width="2143.2" height="1082.12" filterUnits="userSpaceOnUse" color-interpolation-filters="sRGB">
<feFlood flood-opacity="0" result="BackgroundImageFix"/>
<feBlend mode="normal" in="SourceGraphic" in2="BackgroundImageFix" result="shape"/>
<feGaussianBlur stdDeviation="106.5" result="effect1_foregroundBlur_0_4"/>
</filter>
</defs>
</svg>
