<svg viewBox="-244 5 2582 1069" fill="none" preserveAspectRatio="none" xmlns="http://www.w3.org/2000/svg">
  <!-- Figma node 557:168 — organic blob used as the CSS mask layer that knocks
       the glow out of the backdrop image. Path bbox ≈ 1732×669 (x 181..1913,
       y 205..874); blurred anisotropically — σ 170 horizontal for a long, soft
       lateral falloff into the corner lobes, σ 80 vertical so the stretched
       state doesn't need an enormous box to clear the band. The viewBox bakes
       in 2.5σ margins on every side; Backdrop.jsx mirrors these numbers when
       sizing the mask. White fill so it reads at full strength under both
       alpha and luminance mask modes. -->
  <g filter="url(#blur)">
    <path fill-rule="evenodd" clip-rule="evenodd" d="M911.204 432.472C1122.64 400.673 1094.24 224.24 1317.57 213.285C1477.34 205.447 1264.42 361.644 1376.27 409.658C1506.5 465.566 1821.6 400.77 1912.64 468.745C1989.13 525.85 1797.97 593.213 1680.12 636.517C1578.55 673.84 1393.96 651.644 1302.11 693.084C1220.02 730.122 1314.32 802.731 1230.83 839.229C1155.25 872.273 1018.56 873.454 911.204 863.982C806.173 854.715 709.912 825.315 650.917 788.064C595.978 753.375 666.009 697.848 599.182 666.964C525.81 633.055 365.201 656.371 292.25 622.306C225.359 591.07 180.781 533.376 242.153 500.244C317.582 459.523 513.671 497.666 594.904 458.917C670.769 422.729 512.273 326.833 625.549 317.362C757.279 306.348 784.862 451.474 911.204 432.472Z" fill="#fff"/>
  </g>
  <defs>
    <filter id="blur" x="-244" y="5" width="2582" height="1069" filterUnits="userSpaceOnUse" color-interpolation-filters="sRGB">
      <feGaussianBlur stdDeviation="170 80"/>
    </filter>
  </defs>
</svg>
