<svg xmlns="http://www.w3.org/2000/svg" viewBox="0 0 12 12" fill="none" aria-hidden="true">
  <defs>
    <linearGradient
      id="favicon-grad"
      x1="0"
      y1="0"
      x2="12"
      y2="12"
      gradientUnits="userSpaceOnUse"
    >
      <stop offset="0%" stop-color="#2563eb" />
      <stop offset="32%" stop-color="#0d9488" />
      <stop offset="64%" stop-color="#7c3aed" />
      <stop offset="100%" stop-color="#d97706" />
    </linearGradient>
  </defs>
  <!-- Eight radial ticks, hollow center (busy / loading read); mask + tab icon -->
  <path
    fill="url(#favicon-grad)"
    d="M 8.06 5.49 L 8.06 6.51 L 11.36 7.34 L 11.36 4.66 Z M 7.82 7.09 L 7.09 7.82 L 8.84 10.73 L 10.73 8.84 Z M 6.51 8.06 L 5.49 8.06 L 4.66 11.36 L 7.34 11.36 Z M 4.91 7.82 L 4.18 7.09 L 1.27 8.84 L 3.16 10.73 Z M 3.94 6.51 L 3.94 5.49 L 0.64 4.66 L 0.64 7.34 Z M 4.18 4.91 L 4.91 4.18 L 3.16 1.27 L 1.27 3.16 Z M 5.49 3.94 L 6.51 3.94 L 7.34 0.64 L 4.66 0.64 Z M 7.09 4.18 L 7.82 4.91 L 10.73 3.16 L 8.84 1.27 Z"
  />
</svg>
