<svg xmlns="http://www.w3.org/2000/svg" viewBox="0 0 12 12" fill="none" aria-hidden="true">
  <defs>
    <linearGradient
      id="favicon-grad"
      x1="0"
      y1="0"
      x2="12"
      y2="12"
      gradientUnits="userSpaceOnUse"
    >
      <stop offset="0%" stop-color="#2563eb" />
      <stop offset="32%" stop-color="#0d9488" />
      <stop offset="64%" stop-color="#7c3aed" />
      <stop offset="100%" stop-color="#d97706" />
    </linearGradient>
  </defs>
  <path
    fill="url(#favicon-grad)"
    d="M5.16575 0.00407641L6.7703 0C6.73995 1.35041 6.80396 2.74629 6.70739 4.09109C7.82189 3.10589 8.61793 2.27908 9.62297 1.17775C9.9098 1.52601 10.4541 2.03162 10.79 2.36274C9.72785 3.37798 8.87356 4.20855 7.86386 5.27352C8.81294 5.19139 10.9674 5.2458 12 5.24589L11.9907 6.81392L7.92109 6.83985C8.86042 7.79845 9.81179 8.74536 10.7747 9.68023L9.61416 10.8333C8.63862 9.89931 7.79739 8.92427 6.76132 8.03931L6.75318 11.8503L6.70756 11.9401C6.43235 12.0408 5.52227 11.9857 5.17788 11.9785L5.15846 7.87159C4.23329 8.88342 3.27029 9.85998 2.27163 10.7994C1.88614 10.4595 1.54289 10.0829 1.19051 9.70921C2.15079 8.66671 3.08521 7.79845 4.11993 6.83943L0 6.82307L0.00223845 5.2486L3.99971 5.24826C3.09376 4.25754 2.09505 3.3686 1.16922 2.36586L2.31149 1.23274C3.25896 2.18969 4.2126 3.14052 5.17228 4.08516L5.16575 0.00407641Z"
  />
</svg>
