<svg xmlns="http://www.w3.org/2000/svg" viewBox="0 0 12 12" fill="none" aria-hidden="true">
  <defs>
    <linearGradient
      id="favicon-grad"
      x1="0"
      y1="0"
      x2="12"
      y2="12"
      gradientUnits="userSpaceOnUse"
    >
      <stop offset="0%" stop-color="#2563eb" />
      <stop offset="28%" stop-color="#0d9488" />
      <stop offset="52%" stop-color="#7c3aed" />
      <stop offset="78%" stop-color="#2563eb" />
      <stop offset="100%" stop-color="#d97706" />
    </linearGradient>
  </defs>
  <!-- Twelve radial ticks (loading / activity); mask + tab icon; hollow center -->
  <path
    fill="url(#favicon-grad)"
    d="M 8.02 5.68 L 8.02 6.32 L 11.48 6.87 L 11.48 5.13 Z M 7.91 6.73 L 7.59 7.29 L 10.31 9.49 L 11.18 7.99 Z M 7.29 7.59 L 6.73 7.91 L 7.99 11.18 L 9.49 10.31 Z M 6.32 8.02 L 5.68 8.02 L 5.13 11.48 L 6.87 11.48 Z M 5.27 7.91 L 4.71 7.59 L 2.51 10.31 L 4.01 11.18 Z M 4.41 7.29 L 4.09 6.73 L 0.82 7.99 L 1.69 9.49 Z M 3.98 6.32 L 3.98 5.68 L 0.52 5.13 L 0.52 6.87 Z M 4.09 5.27 L 4.41 4.71 L 1.69 2.51 L 0.82 4.01 Z M 4.71 4.41 L 5.27 4.09 L 4.01 0.82 L 2.51 1.69 Z M 5.68 3.98 L 6.32 3.98 L 6.87 0.52 L 5.13 0.52 Z M 6.73 4.09 L 7.29 4.41 L 9.49 1.69 L 7.99 0.82 Z M 7.59 4.71 L 7.91 5.27 L 11.18 4.01 L 10.31 2.51 Z"
  />
</svg>
