<svg preserveAspectRatio="none" width="100%" height="100%" overflow="visible" style="display: block;" viewBox="0 0 16 16" fill="none" xmlns="http://www.w3.org/2000/svg">
<g id="Icon / Hugeicons / TaskDone01">
<path id="Vector" d="M8.99867 1.33333H5.66537C5.11308 1.33333 4.66537 1.78105 4.66537 2.33333C4.66537 2.88562 5.11308 3.33333 5.66537 3.33333H8.99867C9.551 3.33333 9.99867 2.88562 9.99867 2.33333C9.99867 1.78105 9.551 1.33333 8.99867 1.33333Z" stroke="var(--stroke-0, white)" stroke-width="1.5" stroke-linecap="round" stroke-linejoin="round"/>
<path id="Vector_2" d="M4.66537 10H6.95107M4.66537 7.33333H9.99867" stroke="var(--stroke-0, white)" stroke-width="1.5" stroke-linecap="round" stroke-linejoin="round"/>
<path id="Vector_3" d="M12.6654 9V6.32175C12.6654 4.43616 12.6654 3.49336 12.0796 2.90758C11.6521 2.48005 11.0343 2.36454 9.99873 2.33333M7.99867 14.6663H5.9987C4.11309 14.6663 3.17027 14.6663 2.58449 14.0805C1.99871 13.4947 1.9987 12.5519 1.9987 10.6663L1.99871 6.32179C1.9987 4.43617 1.9987 3.49336 2.58449 2.90757C3.01201 2.48005 3.62971 2.36454 4.6653 2.33333" stroke="var(--stroke-0, white)" stroke-width="1.5" stroke-linecap="round" stroke-linejoin="round"/>
<path id="Vector_4" d="M9.332 13.3333C9.332 13.3333 9.99867 13.3333 10.6653 14.6667C10.6653 14.6667 12.1163 11.3333 13.9987 10.6667" stroke="var(--stroke-0, white)" stroke-width="1.5" stroke-linecap="round" stroke-linejoin="round"/>
</g>
</svg>
