<svg preserveAspectRatio="none" width="100%" height="100%" overflow="visible" style="display: block;" viewBox="0 0 16 16" fill="none" xmlns="http://www.w3.org/2000/svg">
<g id="Icon / Hugeicons / WorkflowSquare01" clip-path="url(#clip0_0_121)">
<path id="Vector" d="M4 3.66667C4 3.04359 4 2.73205 4.13397 2.5C4.22174 2.34798 4.34798 2.22174 4.5 2.13397C4.73205 2 5.04359 2 5.66667 2H7.66667C8.28973 2 8.60127 2 8.83333 2.13397C8.98533 2.22174 9.1116 2.34798 9.19933 2.5C9.33333 2.73205 9.33333 3.04359 9.33333 3.66667C9.33333 4.28975 9.33333 4.60128 9.19933 4.83333C9.1116 4.98535 8.98533 5.11159 8.83333 5.19936C8.60127 5.33333 8.28973 5.33333 7.66667 5.33333H5.66667C5.04359 5.33333 4.73205 5.33333 4.5 5.19936C4.34798 5.11159 4.22174 4.98535 4.13397 4.83333C4 4.60128 4 4.28975 4 3.66667Z" stroke="var(--stroke-0, white)" stroke-width="1.5"/>
<path id="Vector_2" d="M4 10.3333C4 9.71027 4 9.39873 4.13397 9.16667C4.22174 9.01467 4.34798 8.8884 4.5 8.80067C4.73205 8.66667 5.04359 8.66667 5.66667 8.66667H7.66667C8.28973 8.66667 8.60127 8.66667 8.83333 8.80067C8.98533 8.8884 9.1116 9.01467 9.19933 9.16667C9.33333 9.39873 9.33333 9.71027 9.33333 10.3333C9.33333 10.9564 9.33333 11.2679 9.19933 11.5C9.1116 11.652 8.98533 11.7783 8.83333 11.866C8.60127 12 8.28973 12 7.66667 12H5.66667C5.04359 12 4.73205 12 4.5 11.866C4.34798 11.7783 4.22174 11.652 4.13397 11.5C4 11.2679 4 10.9564 4 10.3333Z" stroke="var(--stroke-0, white)" stroke-width="1.5"/>
<path id="Vector_3" d="M13.8932 11.4272C14.4089 10.9115 14.6667 10.6537 14.6667 10.3333C14.6667 10.0129 14.4089 9.75513 13.8932 9.23947L13.7605 9.1068C13.2449 8.59113 12.9871 8.33333 12.6667 8.33333C12.3463 8.33333 12.0885 8.59113 11.5728 9.1068L11.4401 9.23947C10.9245 9.75513 10.6667 10.0129 10.6667 10.3333C10.6667 10.6537 10.9245 10.9115 11.4401 11.4272L11.5728 11.5599C12.0885 12.0755 12.3463 12.3333 12.6667 12.3333C12.9871 12.3333 13.2449 12.0755 13.7605 11.5599L13.8932 11.4272Z" stroke="var(--stroke-0, white)" stroke-width="1.5"/>
<path id="Vector_4" d="M4.004 3.66667H1.33854M1.33854 3.66667V1.33333M1.33854 3.66667V8C1.33854 8.7358 1.23767 9.64527 1.93085 10.1086C2.26699 10.3333 2.73493 10.3333 3.67082 10.3333M9.33493 10.3333H10.6677M12.6667 8.33333V6.33333C12.6667 5.07625 12.6667 4.44771 12.2764 4.05719C11.8861 3.66667 11.2578 3.66667 10.0013 3.66667H9.33493" stroke="var(--stroke-0, white)" stroke-width="1.5" stroke-linecap="round" stroke-linejoin="round"/>
<path id="Vector_5" d="M14.6667 14.6667C14.0455 14.6667 13.7349 14.6667 13.4899 14.5797C13.1631 14.4637 12.9036 14.2412 12.7683 13.9611C12.6667 13.7511 12.6667 13.4849 12.6667 12.9524V12.6667" stroke="var(--stroke-0, white)" stroke-width="1.5" stroke-linecap="round" stroke-linejoin="round"/>
</g>
<defs>
<clipPath id="clip0_0_121">
<rect width="16" height="16" fill="white"/>
</clipPath>
</defs>
</svg>
