<svg preserveAspectRatio="none" width="100%" height="100%" overflow="visible" style="display: block;" viewBox="0 0 17.03 17.03" fill="none" xmlns="http://www.w3.org/2000/svg">
<g id="Frame" opacity="0.84">
<path id="Vector" d="M14.1912 15.6109H4.25706C3.47327 15.6109 2.83789 14.9755 2.83789 14.1917M2.83789 14.1917C2.83789 13.4079 3.47327 12.7725 4.25706 12.7725H14.1912V4.25752C14.1912 2.91952 14.1912 2.25052 13.7756 1.83486C13.3599 1.41919 12.6909 1.41919 11.3529 1.41919H7.09539C5.08838 1.41919 4.08488 1.41919 3.46139 2.04269C2.83789 2.66618 2.83789 3.66968 2.83789 5.67669V14.1917Z" stroke="var(--stroke-0, white)" stroke-width="1.13533" stroke-linecap="round" stroke-linejoin="round"/>
<path id="Vector_2" d="M13.8365 12.7725C13.8365 12.7725 13.127 13.3137 13.127 14.1916C13.127 15.0695 13.8365 15.6108 13.8365 15.6108" stroke="var(--stroke-0, white)" stroke-width="1.13533" stroke-linecap="round" stroke-linejoin="round"/>
<path id="Vector_3" d="M8.515 7.09583C9.29878 7.09583 9.93417 6.46045 9.93417 5.67667C9.93417 4.89288 9.29878 4.2575 8.515 4.2575C7.73122 4.2575 7.09583 4.89288 7.09583 5.67667C7.09583 6.46045 7.73122 7.09583 8.515 7.09583Z" stroke="var(--stroke-0, white)" stroke-width="1.13533" stroke-linecap="round" stroke-linejoin="round"/>
<path id="Vector_4" d="M11.3533 9.93417C11.3533 8.36663 10.0825 7.09583 8.515 7.09583C6.94743 7.09583 5.67667 8.36663 5.67667 9.93417" stroke="var(--stroke-0, white)" stroke-width="1.13533" stroke-linecap="round" stroke-linejoin="round"/>
</g>
</svg>
