<svg preserveAspectRatio="none" width="100%" height="100%" overflow="visible" style="display: block;" viewBox="0 0 17 17" fill="none" xmlns="http://www.w3.org/2000/svg">
<g id="Frame" opacity="0.841603">
<path id="Vector" d="M6.12211 2.22813L4.91453 2.78631C3.05484 3.64593 2.125 4.07573 2.125 4.78125C2.125 5.48677 3.05484 5.91657 4.91454 6.77619L6.12211 7.33437C7.29243 7.87532 7.87766 8.14583 8.5 8.14583C9.12234 8.14583 9.70757 7.87532 10.8779 7.33437L12.0854 6.77619C13.9452 5.91657 14.875 5.48677 14.875 4.78125C14.875 4.07573 13.9452 3.64593 12.0854 2.78631L10.8779 2.22813C9.70757 1.68715 9.12234 1.41667 8.5 1.41667C7.87766 1.41667 7.29243 1.68715 6.12211 2.22813Z" stroke="var(--stroke-0, white)" stroke-width="1.13333" stroke-linecap="round" stroke-linejoin="round"/>
<path id="Vector_2" d="M14.7248 7.86052C14.8249 8.00126 14.875 8.14803 14.875 8.30939C14.875 9.00483 13.9452 9.42855 12.0854 10.2759L10.8779 10.8262C9.70757 11.3594 9.12234 11.6261 8.5 11.6261C7.87766 11.6261 7.29243 11.3594 6.12211 10.8262L4.91454 10.2759C3.05484 9.42855 2.125 9.00483 2.125 8.30939C2.125 8.14803 2.17506 8.00126 2.27517 7.86052" stroke="var(--stroke-0, white)" stroke-width="1.13333" stroke-linecap="round" stroke-linejoin="round"/>
<path id="Vector_3" d="M14.4335 11.5218C14.7278 11.7563 14.875 11.99 14.875 12.2666C14.875 12.9621 13.9452 13.3858 12.0854 14.2332L10.8779 14.7834C9.70757 15.3167 9.12234 15.5833 8.5 15.5833C7.87766 15.5833 7.29243 15.3167 6.12211 14.7834L4.91454 14.2332C3.05484 13.3858 2.125 12.9621 2.125 12.2666C2.125 11.99 2.27218 11.7563 2.56653 11.5218" stroke="var(--stroke-0, white)" stroke-width="1.13333" stroke-linecap="round" stroke-linejoin="round"/>
</g>
</svg>
