<svg preserveAspectRatio="none" width="100%" height="100%" overflow="visible" style="display: block;" viewBox="0 0 17 17" fill="none" xmlns="http://www.w3.org/2000/svg">
<g id="Frame" opacity="0.84">
<path id="Vector" d="M11.6316 4.95841C11.8167 4.12114 12.4037 2.69486 11.7154 1.93526C11.2455 1.41675 10.3617 1.41675 8.59424 1.41675H8.40511C6.6376 1.41675 5.75384 1.41675 5.28397 1.93526C4.59563 2.69487 5.18271 4.12114 5.36781 4.95841" stroke="var(--stroke-0, white)" stroke-width="1.13333" stroke-linecap="round" stroke-linejoin="round"/>
<path id="Vector_2" d="M12.7551 10.3788L9.76597 14.4205C9.19265 15.1957 8.90592 15.5833 8.50032 15.5833C8.09473 15.5833 7.80807 15.1957 7.23467 14.4205L4.24554 10.3788C3.76622 9.73079 3.52656 9.40673 3.54276 9.06141C3.55896 8.7161 3.87911 8.35443 4.51939 7.63094C5.13651 6.93368 5.36846 6.21163 5.36846 4.95857L11.6322 4.95825C11.6322 6.21131 11.8644 6.93349 12.4814 7.63086C13.1216 8.3545 13.4417 8.71624 13.4579 9.06156C13.474 9.4068 13.2344 9.73079 12.7551 10.3788Z" stroke="var(--stroke-0, white)" stroke-width="1.13333" stroke-linecap="round" stroke-linejoin="round"/>
<path id="Vector_3" d="M9.5625 9.91667C9.24991 10.1419 8.88703 10.2708 8.5 10.2708M8.5 10.2708C8.11297 10.2708 7.75009 10.1419 7.4375 9.91667M8.5 10.2708V15.5833" stroke="var(--stroke-0, white)" stroke-width="1.13333" stroke-linecap="round"/>
</g>
</svg>
