<svg preserveAspectRatio="none" width="100%" height="100%" overflow="visible" style="display: block;" viewBox="0 0 18.02 18.02" fill="none" xmlns="http://www.w3.org/2000/svg">
<g id="Frame" opacity="0.998335">
<path id="Vector" d="M1.50195 4.50488L6.69248 7.44587C8.60604 8.5301 9.41454 8.5301 11.3281 7.44587L16.5186 4.50488" stroke="var(--stroke-0, white)" stroke-width="1.20133" stroke-linejoin="round"/>
<path id="Vector_2" d="M1.51379 10.1179C1.56288 12.4197 1.58742 13.5705 2.43671 14.4231C3.28599 15.2756 4.46799 15.3052 6.83199 15.3646C8.28896 15.4013 9.73161 15.4013 11.1886 15.3646C13.5526 15.3052 14.7346 15.2756 15.5839 14.4231C16.4332 13.5705 16.4577 12.4197 16.5068 10.1179C16.5226 9.37785 16.5226 8.64218 16.5068 7.90208C16.4577 5.60037 16.4332 4.44952 15.5839 3.597C14.7346 2.74448 13.5526 2.71479 11.1886 2.65539C9.73161 2.61878 8.28896 2.61878 6.83198 2.65538C4.46799 2.71477 3.28599 2.74447 2.4367 3.59699C1.58741 4.44951 1.56288 5.60037 1.51379 7.90208C1.498 8.64218 1.49801 9.37785 1.51379 10.1179Z" stroke="var(--stroke-0, white)" stroke-width="1.20133" stroke-linejoin="round"/>
</g>
</svg>
