<svg preserveAspectRatio="none" width="100%" height="100%" overflow="visible" style="display: block;" viewBox="0 0 12 12" fill="none" xmlns="http://www.w3.org/2000/svg">
<g id="div.size-3:mask" clip-path="url(#clip0_0_93)">
<g id="favicon.svg" clip-path="url(#clip1_0_93)">
<g id="Group">
<g id="Group_2">
<path id="Vector" d="M6.675 0.5H5.325V3.5H6.675V0.5Z" fill="url(#paint0_linear_0_93)"/>
</g>
<g id="Group_3">
<path id="Vector_2" d="M10.3664 2.58821L9.41179 1.63362L7.29047 3.75494L8.24506 4.70953L10.3664 2.58821Z" fill="url(#paint1_linear_0_93)"/>
</g>
<g id="Group_4">
<path id="Vector_3" d="M11.5 6.675V5.325H8.5V6.675H11.5Z" fill="url(#paint2_linear_0_93)"/>
</g>
<g id="Group_5">
<path id="Vector_4" d="M9.41179 10.3664L10.3664 9.41179L8.24506 7.29047L7.29047 8.24506L9.41179 10.3664Z" fill="url(#paint3_linear_0_93)"/>
</g>
<g id="Group_6">
<path id="Vector_5" d="M5.325 11.5H6.675V8.5H5.325V11.5Z" fill="url(#paint4_linear_0_93)"/>
</g>
<g id="Group_7">
<path id="Vector_6" d="M1.63362 9.41179L2.58821 10.3664L4.70953 8.24506L3.75494 7.29047L1.63362 9.41179Z" fill="url(#paint5_linear_0_93)"/>
</g>
<g id="Group_8">
<path id="Vector_7" d="M0.5 5.325L0.5 6.675L3.5 6.675L3.5 5.325H0.5Z" fill="url(#paint6_linear_0_93)"/>
</g>
<g id="Group_9">
<path id="Vector_8" d="M2.58821 1.63362L1.63362 2.58821L3.75494 4.70953L4.70953 3.75494L2.58821 1.63362Z" fill="url(#paint7_linear_0_93)"/>
</g>
</g>
</g>
</g>
<defs>
<linearGradient id="paint0_linear_0_93" x1="6" y1="6" x2="18" y2="18" gradientUnits="userSpaceOnUse">
<stop stop-color="#2563EB"/>
<stop offset="0.5" stop-color="#7C3AED"/>
<stop offset="1" stop-color="#D97706"/>
</linearGradient>
<linearGradient id="paint1_linear_0_93" x1="6" y1="6" x2="6" y2="22.9706" gradientUnits="userSpaceOnUse">
<stop stop-color="#2563EB"/>
<stop offset="0.5" stop-color="#7C3AED"/>
<stop offset="1" stop-color="#D97706"/>
</linearGradient>
<linearGradient id="paint2_linear_0_93" x1="6" y1="6" x2="-6" y2="18" gradientUnits="userSpaceOnUse">
<stop stop-color="#2563EB"/>
<stop offset="0.5" stop-color="#7C3AED"/>
<stop offset="1" stop-color="#D97706"/>
</linearGradient>
<linearGradient id="paint3_linear_0_93" x1="6" y1="6" x2="-10.9706" y2="6" gradientUnits="userSpaceOnUse">
<stop stop-color="#2563EB"/>
<stop offset="0.5" stop-color="#7C3AED"/>
<stop offset="1" stop-color="#D97706"/>
</linearGradient>
<linearGradient id="paint4_linear_0_93" x1="6" y1="6" x2="-6" y2="-6" gradientUnits="userSpaceOnUse">
<stop stop-color="#2563EB"/>
<stop offset="0.5" stop-color="#7C3AED"/>
<stop offset="1" stop-color="#D97706"/>
</linearGradient>
<linearGradient id="paint5_linear_0_93" x1="6" y1="6" x2="6" y2="-10.9706" gradientUnits="userSpaceOnUse">
<stop stop-color="#2563EB"/>
<stop offset="0.5" stop-color="#7C3AED"/>
<stop offset="1" stop-color="#D97706"/>
</linearGradient>
<linearGradient id="paint6_linear_0_93" x1="6" y1="6" x2="18" y2="-6" gradientUnits="userSpaceOnUse">
<stop stop-color="#2563EB"/>
<stop offset="0.5" stop-color="#7C3AED"/>
<stop offset="1" stop-color="#D97706"/>
</linearGradient>
<linearGradient id="paint7_linear_0_93" x1="6" y1="6" x2="22.9706" y2="6" gradientUnits="userSpaceOnUse">
<stop stop-color="#2563EB"/>
<stop offset="0.5" stop-color="#7C3AED"/>
<stop offset="1" stop-color="#D97706"/>
</linearGradient>
<clipPath id="clip0_0_93">
<rect width="12" height="12" fill="white"/>
</clipPath>
<clipPath id="clip1_0_93">
<rect width="12" height="12" fill="white"/>
</clipPath>
</defs>
</svg>
