<svg preserveAspectRatio="none" width="100%" height="100%" overflow="visible" style="display: block;" viewBox="0 0 473.062 256.452" fill="none" xmlns="http://www.w3.org/2000/svg">
<g id="Group" filter="url(#filter0_i_0_16)">
<path id="Vector" d="M235.817 256.452C310.509 192.428 415.441 130.183 473.062 107.775C464.166 102.084 450.296 93.9035 434.648 85.0114C360.309 109.553 273.519 163.973 195.979 225.507C209.142 235.467 223.012 245.781 235.817 256.452Z" fill="var(--fill-0, #BE0022)"/>
<path id="Vector_2" d="M201.669 82.5181C190.647 77.1827 178.554 72.2032 169.304 67.9351C141.205 81.8067 104.569 102.792 58.3283 135.871C68.2903 141.206 78.9592 147.609 90.34 154.011C125.912 127.69 161.836 102.792 201.669 82.5181Z" fill="var(--fill-0, #BE0022)"/>
<path id="Vector_3" d="M268.182 51.9297C254.665 44.4602 207.718 27.0316 175.348 19.5622C165.744 23.119 152.228 28.4543 142.983 32.3669C154.717 35.5681 198.468 47.3057 235.817 66.1573C245.42 61.5332 258.937 55.8423 268.182 51.9297Z" fill="var(--fill-0, #BE0022)"/>
<path id="Vector_4" d="M109.193 47.3074C67.5781 66.5143 23.827 92.8351 9.10476e-06 108.13C8.53306 112.042 17.0712 115.243 28.8106 120.934C81.4482 85.3659 122.71 63.6691 139.069 56.5553C127.335 52.2867 116.308 49.4414 109.193 47.3074Z" fill="var(--fill-0, #BE0022)"/>
<path id="Vector_5" d="M299.487 40.9039C309.09 37.7027 320.118 34.8573 329.721 32.0118C301.976 20.2741 267.122 7.82511 235.822 0C230.838 1.42275 215.903 5.33531 205.587 8.53649C216.256 11.7377 251.469 19.9184 299.487 40.9039ZM124.134 174.642C135.515 181.4 147.608 190.648 159.347 198.473C237.241 138.006 314.069 91.4112 398.37 65.0904C386.63 59.044 376.315 53.7086 363.157 47.3063C312.65 60.1109 226.218 94.6124 124.134 174.642Z" fill="var(--fill-0, #BE0022)"/>
</g>
<defs>
<filter id="filter0_i_0_16" x="9.10476e-06" y="-20.4875" width="473.062" height="276.94" filterUnits="userSpaceOnUse" color-interpolation-filters="sRGB">
<feFlood flood-opacity="0" result="BackgroundImageFix"/>
<feBlend mode="normal" in="SourceGraphic" in2="BackgroundImageFix" result="shape"/>
<feColorMatrix in="SourceAlpha" type="matrix" values="0 0 0 0 0 0 0 0 0 0 0 0 0 0 0 0 0 0 127 0" result="hardAlpha"/>
<feOffset dy="-20.4875"/>
<feGaussianBlur stdDeviation="10.2438"/>
<feComposite in2="hardAlpha" operator="arithmetic" k2="-1" k3="1"/>
<feColorMatrix type="matrix" values="0 0 0 0 1 0 0 0 0 1 0 0 0 0 1 0 0 0 0.24 0"/>
<feBlend mode="normal" in2="shape" result="effect1_innerShadow_0_16"/>
</filter>
</defs>
</svg>
