<svg preserveAspectRatio="none" width="100%" height="100%" overflow="visible" style="display: block;" viewBox="0 0 104.017 56.3889" fill="none" xmlns="http://www.w3.org/2000/svg">
<g id="Group" filter="url(#filter0_i_0_10)">
<path id="Vector" d="M51.8516 56.3889C68.275 42.3113 91.3475 28.6248 104.017 23.6977C102.061 22.4463 99.0113 20.6476 95.5708 18.6924C79.2251 24.0887 60.1416 36.0546 43.092 49.5847C45.9863 51.7746 49.0361 54.0425 51.8516 56.3889Z" fill="var(--fill-0, white)"/>
<path id="Vector_2" d="M44.3432 18.1442C41.9196 16.971 39.2606 15.8761 37.2267 14.9376C31.0483 17.9877 22.9926 22.602 12.8253 29.8755C15.0157 31.0485 17.3616 32.4563 19.864 33.864C27.6855 28.0766 35.5847 22.602 44.3432 18.1442Z" fill="var(--fill-0, white)"/>
<path id="Vector_3" d="M58.968 11.4183C55.996 9.77595 45.6732 5.94372 38.5556 4.30135C36.444 5.08343 33.4719 6.25656 31.4391 7.11686C34.0192 7.82073 43.6393 10.4016 51.8515 14.5467C53.9632 13.53 56.9352 12.2787 58.968 11.4183Z" fill="var(--fill-0, white)"/>
<path id="Vector_4" d="M24.0095 10.402C14.8591 14.6252 5.2391 20.4127 0 23.7756C1.87625 24.6359 3.75364 25.3398 6.33489 26.5911C17.9089 18.7703 26.9816 13.9996 30.5786 12.4354C27.9985 11.4968 25.5738 10.8712 24.0095 10.402Z" fill="var(--fill-0, white)"/>
<path id="Vector_5" d="M65.8514 8.99398C67.963 8.29011 70.3877 7.66444 72.4994 7.03877C66.3987 4.45788 58.7349 1.72059 51.8527 0C50.7569 0.312834 47.4729 1.17313 45.2047 1.87701C47.5506 2.58089 55.2932 4.37968 65.8514 8.99398ZM27.2947 38.4004C29.7971 39.8864 32.4561 41.9198 35.0373 43.6404C52.1646 30.3449 69.0577 20.0996 87.5938 14.3121C85.0126 12.9826 82.7444 11.8095 79.8512 10.4017C68.7457 13.2172 49.741 20.8034 27.2947 38.4004Z" fill="var(--fill-0, white)"/>
</g>
<defs>
<filter id="filter0_i_0_10" x="0" y="-4.50481" width="104.017" height="60.8937" filterUnits="userSpaceOnUse" color-interpolation-filters="sRGB">
<feFlood flood-opacity="0" result="BackgroundImageFix"/>
<feBlend mode="normal" in="SourceGraphic" in2="BackgroundImageFix" result="shape"/>
<feColorMatrix in="SourceAlpha" type="matrix" values="0 0 0 0 0 0 0 0 0 0 0 0 0 0 0 0 0 0 127 0" result="hardAlpha"/>
<feOffset dy="-4.50481"/>
<feGaussianBlur stdDeviation="2.25241"/>
<feComposite in2="hardAlpha" operator="arithmetic" k2="-1" k3="1"/>
<feColorMatrix type="matrix" values="0 0 0 0 1 0 0 0 0 1 0 0 0 0 1 0 0 0 0.24 0"/>
<feBlend mode="normal" in2="shape" result="effect1_innerShadow_0_10"/>
</filter>
</defs>
</svg>
