<svg preserveAspectRatio="none" width="100%" height="100%" overflow="visible" style="display: block;" viewBox="0 0 127.196 11.0689" fill="none" xmlns="http://www.w3.org/2000/svg">
<g id="Bank of America Corporation" clip-path="url(#clip0_0_4)">
<path id="Vector" d="M0 9.61145H3.55484C5.35447 9.61145 6.19875 8.67829 6.19875 7.36745C6.19875 6.30098 5.64331 5.59002 4.48799 5.36785C5.50999 5.12346 5.97659 4.50134 5.97659 3.59042C5.97659 2.4351 5.13231 1.50194 3.33267 1.50194H0.0222177V9.61145H0ZM3.08827 6.16769C3.7548 6.16769 4.22136 6.50094 4.22136 7.16749C4.22136 7.87845 3.77703 8.16729 3.08827 8.16729H1.93295V6.14546H3.08827V6.16769ZM2.86609 2.9239C3.53263 2.9239 3.99919 3.21274 3.99919 3.87926C3.99919 4.54578 3.55484 4.83462 2.86609 4.83462H1.93295V2.9239H2.86609ZM13.3751 1.47974H11.3755L8.33167 9.61145H10.3535L10.9089 7.92289H13.8417L14.3971 9.61145H16.4411L13.3751 1.47974ZM12.3753 3.4349L13.3307 6.43429H11.3755L12.3753 3.4349ZM26.5724 1.47974H24.7284V6.92309L21.2624 1.47974H19.1961V9.61145H21.0402V4.1903L24.5062 9.61145H26.5724V1.47974ZM35.0819 9.61145L32.4156 5.47894V9.61145H30.4383V1.47974H32.4156V5.39006L34.9485 1.47974H37.148L34.482 5.39006L37.3925 9.61145H35.0819ZM44.3911 5.54558C44.3911 7.16749 45.3688 8.16729 46.6351 8.16729C47.9014 8.16729 48.8791 7.16749 48.8791 5.54558C48.8791 3.9237 47.9014 2.9239 46.6351 2.9239C45.3688 2.9239 44.3911 3.9237 44.3911 5.54558ZM42.3025 5.54558C42.3249 3.1683 43.9911 1.30198 46.6351 1.30198C49.279 1.30198 50.9453 3.1683 50.9677 5.54558C50.9453 7.92289 49.279 9.78917 46.6351 9.78917C43.9911 9.78917 42.3249 7.92289 42.3025 5.54558ZM53.6782 9.61145H55.6554V6.41209H58.2328V4.85682H55.6554V3.03498H58.7661L59.1215 1.47974H53.6782V9.61145ZM68.3418 1.47974H66.3422L63.2983 9.61145H65.3203L65.8757 7.92289H68.8082L69.364 9.61145H71.4077L68.3418 1.47974ZM67.342 3.4349L68.2973 6.43429H66.3422L67.342 3.4349ZM83.1388 1.47974H80.8282L78.7176 5.87885L76.6067 1.47974H74.2961V9.61145H76.0736V4.16809L78.6952 9.61145L81.3171 4.16809V9.61145H83.1612L83.1388 1.47974ZM86.9825 9.61145H92.5369V8.05618H88.96V6.23433H91.7815V4.72354H88.96V3.03498H92.2259L92.5814 1.47974H86.9825V9.61145ZM100.069 9.61145H102.224L100.202 6.16769C101.313 5.85662 101.846 5.07902 101.846 3.9459C101.846 2.47954 100.958 1.50194 98.958 1.50194H95.8252V9.63365H97.7582V6.43429H98.2912L100.069 9.61145ZM98.5802 2.99054C99.4021 2.99054 99.8244 3.34602 99.8244 4.03478C99.8244 4.72353 99.4021 5.07902 98.5802 5.07902H97.7358V2.99054H98.5802ZM105.179 9.61145H107.156V1.50194H105.179V9.61145ZM116.888 7.43409C116.132 7.96733 115.466 8.14506 114.777 8.14506C113.266 8.14506 112.199 7.10082 112.199 5.54558C112.199 3.99034 113.244 2.9461 114.71 2.9461C115.377 2.9461 116.043 3.12386 116.776 3.65706V1.81302C116.11 1.4353 115.332 1.27978 114.466 1.27978C111.778 1.27978 110.089 3.14606 110.067 5.52337C110.089 7.92289 111.733 9.76697 114.466 9.76697C115.377 9.76697 116.155 9.61145 116.865 9.23373V7.43409H116.888ZM124.131 1.47974H122.131L119.087 9.61145H121.109L121.664 7.92289H124.597L125.153 9.61145H127.196L124.131 1.47974ZM123.131 3.4349L124.086 6.43429H122.131L123.131 3.4349Z" fill="var(--fill-0, white)"/>
</g>
<defs>
<clipPath id="clip0_0_4">
<rect width="127.196" height="11.0689" fill="white"/>
</clipPath>
</defs>
</svg>
