<svg preserveAspectRatio="none" width="100%" height="100%" overflow="visible" style="display: block;" viewBox="0 0 28.7946 30.1657" fill="none" xmlns="http://www.w3.org/2000/svg">
<g id="Frame 15">
<path id="Vector" d="M17.7019 25.0194C17.3187 24.8643 17.0449 24.5176 16.9811 24.107C16.9355 23.8698 16.9811 23.7056 17.346 23.0487C18.7146 20.5853 19.4171 17.8026 19.3806 14.9833C19.4171 12.2462 18.7511 9.57301 17.4373 7.17348C17.2457 6.77204 17.0723 6.38884 16.9263 5.97828C16.9811 5.63158 17.1544 5.31225 17.4373 5.12065C17.8478 4.90168 18.3496 4.9473 18.7237 5.20277C18.9792 5.53122 19.1981 5.85967 19.3806 6.24286C20.3623 8.12316 21.031 10.1509 21.3604 12.2462C21.5703 13.8976 21.5977 15.5764 21.4426 17.2369C21.1597 19.3718 20.5302 21.4338 19.5631 23.3589C18.9792 24.5267 18.6507 25.0194 18.304 25.0194H17.7019ZM13.7239 23.0031C13.2039 22.8571 12.8754 22.3279 12.9849 21.7987C12.9849 21.6892 13.2677 21.1874 13.5232 20.6765C14.5998 18.6054 15.0651 16.2698 14.8553 13.9432C14.7275 12.2736 14.244 10.6496 13.4502 9.18069C12.8754 8.03111 12.8389 7.84863 13.1765 7.35595C13.5779 6.90889 14.244 6.84503 14.7367 7.22822C15.3936 8.19533 15.9136 9.25368 16.2968 10.3668C17.4646 13.8246 17.2822 17.5927 15.7859 20.9137C15.0195 22.6381 14.4812 23.1947 13.7239 22.9574V23.0031ZM9.61827 20.9685C9.45582 20.8956 9.31171 20.7873 9.19648 20.6515C9.08124 20.5158 8.9978 20.356 8.95224 20.1838C8.95224 20.0014 8.95225 19.7642 9.36281 19.0343C10.0313 17.8216 10.3819 16.4593 10.3819 15.0746C10.3819 13.6898 10.0313 12.3276 9.36281 11.1149C8.76977 9.96533 8.76977 9.72811 9.25333 9.29017C9.42668 9.08945 9.68214 8.98909 9.95585 9.02559C10.5398 9.02559 10.8682 9.30842 11.3609 10.3394C12.137 11.7636 12.5388 13.3615 12.5287 14.9833C12.5652 16.6347 12.1638 18.277 11.37 19.7277C10.8773 20.6856 10.631 20.9137 10.1383 20.9959C9.96497 21.0141 9.7825 20.9959 9.61827 20.9137V20.9685ZM5.77721 19.0251C5.47612 18.8792 5.23891 18.6328 5.1203 18.3135C5.02906 17.9942 5.1203 17.7204 5.48525 17.1365C5.94143 16.5161 6.1604 15.7497 6.11478 14.9833C6.17865 14.2078 5.9688 13.4414 5.52174 12.8028C5.36999 12.573 5.23579 12.332 5.1203 12.082C5.01994 11.5072 5.40313 10.9598 6.03267 10.8503C6.52535 10.7591 6.87205 10.9689 7.32823 11.6623C7.97539 12.6474 8.32021 13.8002 8.32021 14.9788C8.32021 16.1574 7.97539 17.3102 7.32823 18.2952C6.86292 18.9978 6.33375 19.2076 5.78633 19.0251H5.77721Z" fill="var(--fill-0, white)"/>
</g>
</svg>
