<svg preserveAspectRatio="none" width="100%" height="100%" overflow="visible" style="display: block;" viewBox="0 0 23.0862 21.9817" fill="none" xmlns="http://www.w3.org/2000/svg">
<path id="Union" d="M0.10564 0.140499C0.291711 -0.065974 0.59072 -0.0123452 1.18767 0.094601C5.95286 0.948434 9.95813 3.68702 12.2033 7.4071C13.8865 3.16461 18.0271 0.164913 22.8693 0.164913C22.9923 0.164993 23.0905 0.270464 23.0861 0.393429C22.8976 5.70222 19.1038 10.0894 14.0783 11.1854C14.3621 12.4035 14.6466 14.0942 14.6467 15.995C14.6467 17.8303 14.5519 19.0677 14.4523 19.8641C14.4025 20.2627 14.3521 20.5537 14.3097 20.7548C14.2886 20.855 14.2685 20.9332 14.2531 20.9921C14.2454 21.0214 14.2384 21.0463 14.2326 21.0663C14.2297 21.0763 14.2281 21.0858 14.2258 21.0936C14.2246 21.0974 14.2229 21.1011 14.2219 21.1044C14.2213 21.1059 14.2203 21.1078 14.2199 21.1092V21.1132C14.2188 21.1134 14.1857 21.1028 13.0295 20.7323L14.2189 21.1141C14.008 21.7711 13.3048 22.1322 12.6476 21.9217C11.9913 21.7113 11.6294 21.0099 11.8381 20.3534C11.8377 20.3545 11.8366 20.3571 11.8361 20.3583C11.8409 20.3401 11.8504 20.3011 11.8635 20.2391C11.8901 20.1127 11.9297 19.8904 11.9719 19.5536C12.0562 18.8788 12.1467 17.7478 12.1467 15.996C12.1466 14.323 11.8941 12.8176 11.6388 11.7284C11.6157 11.6296 11.5914 11.5347 11.5685 11.4432C11.5502 11.4382 11.5329 11.4313 11.5168 11.4217C6.07654 10.4509 1.68957 6.44346 0.17107 1.21374C0.00337834 0.636209 -0.0804159 0.347259 0.10564 0.140499Z" fill="url(#paint0_linear_0_219)"/>
<defs>
<linearGradient id="paint0_linear_0_219" x1="0.000171324" y1="10.9909" x2="23.0864" y2="10.9909" gradientUnits="userSpaceOnUse">
<stop stop-color="#0066FF"/>
<stop offset="1" stop-color="#AA92FF"/>
</linearGradient>
</defs>
</svg>
