<svg preserveAspectRatio="none" width="100%" height="100%" overflow="visible" style="display: block;" viewBox="0 0 115.178 70.618" fill="none" xmlns="http://www.w3.org/2000/svg">
<g id="Logo">
<path id="Vector" d="M49.6693 25.0595L41.0528 45.6161H35.431L31.1914 29.2087C30.9336 28.1995 30.7115 27.8293 29.9272 27.4042C28.6492 26.7104 26.5376 26.0605 24.6811 25.6546L24.8072 25.0595H33.8569C34.4483 25.0589 35.0204 25.2697 35.47 25.6539C35.9196 26.0382 36.217 26.5704 36.3086 27.1547L38.5491 39.0509L44.0831 25.0595H49.6693ZM71.6985 38.9056C71.7204 33.4785 64.1954 33.1796 64.2476 30.7553C64.264 30.0177 64.966 29.2333 66.5018 29.0332C68.3015 28.8622 70.114 29.1806 71.7479 29.9546L72.6802 25.5943C71.0896 24.9963 69.405 24.687 67.7056 24.6811C62.4486 24.6811 58.7492 27.4782 58.7162 31.4793C58.6833 34.4383 61.3571 36.0865 63.3727 37.0737C65.446 38.0801 66.1425 38.7273 66.1315 39.6268C66.1178 41.009 64.4806 41.615 62.9504 41.6397C60.2766 41.6808 58.7272 40.9185 57.4877 40.3426L56.5251 44.8455C57.7674 45.4159 60.06 45.915 62.4376 45.9369C68.0238 45.9369 71.6793 43.1781 71.6985 38.9056ZM85.5775 45.6161H90.4972L86.2055 25.0595H81.6642C81.1789 25.055 80.7035 25.1964 80.2996 25.4653C79.8957 25.7343 79.582 26.1184 79.399 26.5678L71.4215 45.6161H77.0049L78.1156 42.5447H84.9385L85.5775 45.6161ZM79.6458 38.3324L82.443 30.6127L84.0555 38.3324H79.6458ZM57.2683 25.0595L52.8723 45.6161H47.5522L51.9536 25.0595H57.2683Z" fill="var(--fill-0, white)"/>
</g>
</svg>
